<?xml version="1.0" encoding="UTF-8"?>
<svg xmlns="http://www.w3.org/2000/svg" xmlns:xlink="http://www.w3.org/1999/xlink" width="160pt" height="40pt" viewBox="0 0 160 40" version="1.1">
<g id="surface1">
<path style=" stroke:none;fill-rule:nonzero;fill:rgb(0%,0%,0%);fill-opacity:1;" d="M 0 19.90625 L 0 39.816406 L 160.121094 39.816406 L 160.121094 0 L 0 0 Z M 139.632812 12.316406 C 142.023438 13.195312 143.863281 14.90625 144.539062 16.945312 C 144.785156 17.683594 145.460938 18.75 146.074219 19.351562 C 147.484375 20.742188 146.441406 23.148438 144.417969 23.148438 C 143.742188 23.148438 143.558594 22.359375 143.558594 19.90625 C 143.558594 16.804688 143.496094 16.621094 141.226562 14.816406 C 139.078125 13.148438 138.527344 12.964844 135.890625 12.964844 C 133.25 12.964844 132.699219 13.148438 130.550781 14.816406 C 128.28125 16.621094 128.222656 16.804688 128.222656 19.90625 C 128.222656 23.519531 127.300781 24.167969 125.398438 21.945312 C 124.417969 20.832031 124.417969 20.742188 125.582031 19.535156 C 126.257812 18.84375 127.054688 17.59375 127.238281 16.804688 C 128.464844 12.640625 134.480469 10.464844 139.632812 12.316406 Z M 16.808594 13.054688 C 18.222656 14.582031 18.097656 16.667969 16.625 16.667969 C 15.765625 16.667969 15.335938 16.296875 15.214844 15.417969 C 15.09375 14.769531 14.664062 14.121094 14.292969 13.980469 C 13.679688 13.84375 13.496094 15.230469 13.496094 19.859375 C 13.496094 23.148438 13.742188 25.972656 14.050781 26.109375 C 14.664062 26.433594 15.335938 25.324219 15.335938 24.027344 C 15.335938 23.472656 15.765625 23.148438 16.5625 23.148438 C 17.546875 23.148438 17.792969 23.472656 17.792969 24.628906 C 17.792969 26.433594 16.257812 27.777344 14.109375 27.777344 C 11.289062 27.777344 11.042969 27.175781 11.042969 19.816406 C 11.042969 13.84375 11.164062 12.964844 12.148438 12.546875 C 13.863281 11.757812 15.828125 11.992188 16.808594 13.054688 Z M 26.441406 12.5 C 27.484375 12.964844 27.605469 13.566406 27.605469 19.816406 C 27.605469 24.535156 27.363281 26.851562 26.871094 27.222656 C 25.828125 28.007812 23.3125 27.917969 21.964844 26.992188 C 20.980469 26.34375 20.859375 25.464844 20.859375 20.183594 C 20.859375 15.417969 21.042969 13.890625 21.839844 13.054688 C 22.820312 11.945312 24.539062 11.757812 26.441406 12.5 Z M 34.355469 14.675781 C 36.011719 21.109375 35.828125 21.019531 37.054688 16.296875 C 38.035156 12.546875 38.34375 11.992188 39.386719 12.128906 C 40 12.222656 40.550781 12.40625 40.492188 12.59375 C 40.492188 12.824219 40.492188 16.296875 40.492188 20.371094 C 40.492188 27.453125 40.429688 27.777344 39.265625 27.777344 C 38.222656 27.777344 38.035156 27.453125 37.976562 25.324219 C 37.914062 22.871094 37.851562 22.824219 37.179688 25.140625 C 36.6875 26.757812 35.09375 26.757812 34.601562 25.09375 C 33.925781 22.824219 33.863281 22.871094 33.804688 25.324219 C 33.742188 27.453125 33.558594 27.777344 32.515625 27.777344 C 31.351562 27.777344 31.289062 27.453125 31.289062 19.90625 C 31.289062 12.453125 31.351562 12.035156 32.453125 12.035156 C 33.4375 12.035156 33.804688 12.546875 34.355469 14.675781 Z M 49.816406 12.824219 C 50.796875 13.472656 50.921875 14.351562 50.921875 19.953125 C 50.921875 26.945312 50.550781 27.777344 47.300781 27.777344 C 44.417969 27.777344 44.171875 27.175781 44.171875 20.09375 C 44.171875 14.722656 44.355469 13.378906 45.152344 12.777344 C 46.378906 11.804688 48.40625 11.851562 49.816406 12.824219 Z M 86.6875 12.640625 C 87.300781 12.917969 87.914062 13.980469 88.160156 14.953125 C 88.464844 16.574219 88.40625 16.667969 86.871094 16.667969 C 85.519531 16.667969 85.277344 16.480469 85.277344 15.230469 C 85.277344 14.445312 84.96875 13.890625 84.601562 13.980469 C 84.234375 14.074219 83.988281 14.304688 83.988281 14.492188 C 84.050781 14.675781 84.050781 17.40625 84.050781 20.601562 C 84.050781 24.167969 84.292969 26.390625 84.664062 26.390625 C 85.03125 26.390625 85.277344 25.648438 85.277344 24.722656 C 85.277344 23.285156 85.460938 23.101562 86.6875 23.242188 C 88.710938 23.472656 88.835938 25.601562 86.871094 27.082031 C 85.03125 28.472656 84.664062 28.519531 82.578125 27.269531 C 80.980469 26.34375 80.980469 26.25 80.980469 20.09375 C 80.980469 14.492188 81.105469 13.796875 82.207031 12.964844 C 83.621094 11.898438 85.214844 11.757812 86.6875 12.640625 Z M 101.59375 12.683594 C 102.636719 13.285156 102.761719 14.027344 102.945312 18.980469 C 103.191406 25.554688 102.945312 26.574219 100.980469 27.59375 C 99.753906 28.195312 99.203125 28.195312 98.035156 27.730469 C 97.238281 27.40625 96.441406 26.945312 96.195312 26.667969 C 95.949219 26.390625 95.707031 23.378906 95.707031 20 C 95.707031 14.492188 95.828125 13.796875 96.933594 12.964844 C 98.40625 11.851562 99.9375 11.804688 101.59375 12.683594 Z M 59.507812 13.425781 C 59.507812 14.027344 59.078125 14.351562 58.28125 14.351562 C 57.179688 14.351562 57.054688 14.675781 57.054688 16.898438 C 57.054688 18.84375 57.238281 19.445312 57.976562 19.445312 C 58.464844 19.445312 58.894531 19.859375 58.894531 20.371094 C 58.894531 20.878906 58.464844 21.296875 57.976562 21.296875 C 57.238281 21.296875 57.054688 21.945312 57.054688 24.535156 C 57.054688 27.453125 56.933594 27.777344 55.828125 27.777344 C 54.664062 27.777344 54.601562 27.453125 54.601562 20.140625 L 54.601562 12.5 L 57.054688 12.5 C 59.078125 12.5 59.507812 12.640625 59.507812 13.425781 Z M 65.03125 19.445312 C 65.03125 23.75 65.277344 26.390625 65.644531 26.390625 C 66.011719 26.390625 66.257812 23.75 66.257812 19.445312 L 66.257812 12.5 L 69.324219 12.5 L 69.324219 19.214844 C 69.324219 25.785156 69.265625 26.019531 67.792969 27.082031 C 66.011719 28.472656 65.644531 28.519531 63.558594 27.269531 L 61.964844 26.34375 L 61.964844 12.5 L 65.03125 12.5 Z M 74.601562 14.214844 C 75.519531 18.425781 75.949219 18.84375 76.011719 15.601562 C 76.074219 12.824219 76.195312 12.5 77.300781 12.5 C 78.464844 12.5 78.527344 12.824219 78.527344 20.140625 C 78.527344 27.40625 78.464844 27.777344 77.300781 27.777344 C 76.441406 27.777344 75.949219 27.269531 75.460938 25.785156 C 74.417969 22.777344 74.355469 22.730469 74.292969 25.324219 C 74.234375 27.453125 74.050781 27.777344 73.007812 27.777344 C 71.839844 27.777344 71.777344 27.453125 71.777344 20.140625 C 71.777344 12.871094 71.839844 12.5 73.007812 12.5 C 73.863281 12.5 74.292969 12.917969 74.601562 14.214844 Z M 93.25 20.140625 C 93.25 27.453125 93.191406 27.777344 92.023438 27.777344 C 90.859375 27.777344 90.796875 27.453125 90.796875 20.140625 C 90.796875 12.824219 90.859375 12.5 92.023438 12.5 C 93.191406 12.5 93.25 12.824219 93.25 20.140625 Z M 108.34375 14.214844 C 109.265625 18.425781 109.691406 18.84375 109.753906 15.601562 C 109.816406 12.824219 109.9375 12.5 111.042969 12.5 C 112.207031 12.5 112.269531 12.824219 112.269531 20.183594 C 112.269531 27.824219 112.269531 27.824219 110.921875 27.683594 C 109.878906 27.59375 109.386719 27.035156 108.835938 25.230469 L 108.097656 22.917969 L 108.035156 25.324219 C 107.976562 27.453125 107.792969 27.777344 106.75 27.777344 C 105.582031 27.777344 105.519531 27.453125 105.519531 20.140625 C 105.519531 12.871094 105.582031 12.5 106.75 12.5 C 107.605469 12.5 108.035156 12.917969 108.34375 14.214844 Z M 121.105469 19.304688 C 121.71875 23.101562 122.332031 26.527344 122.453125 26.945312 C 122.699219 27.59375 122.394531 27.777344 121.226562 27.777344 C 120.0625 27.777344 119.632812 27.546875 119.632812 26.851562 C 119.632812 26.34375 119.203125 25.925781 118.710938 25.925781 C 118.222656 25.925781 117.792969 26.34375 117.792969 26.851562 C 117.792969 27.546875 117.363281 27.777344 116.195312 27.777344 C 114.785156 27.777344 114.664062 27.640625 114.96875 26.480469 C 115.152344 25.785156 115.765625 22.359375 116.320312 18.84375 C 117.300781 12.871094 117.484375 12.5 118.710938 12.5 C 120 12.5 120.121094 12.871094 121.105469 19.304688 Z M 138.160156 16.527344 C 139.507812 17.40625 139.753906 22.082031 138.527344 23.242188 C 137.179688 24.535156 135.152344 24.675781 133.804688 23.65625 C 132.148438 22.40625 131.964844 17.871094 133.558594 16.574219 C 134.785156 15.554688 136.6875 15.507812 138.160156 16.527344 Z M 130.0625 20.832031 C 130.0625 22.082031 129.816406 23.242188 129.449219 23.378906 C 129.078125 23.566406 128.835938 22.59375 128.835938 20.832031 C 128.835938 19.074219 129.078125 18.101562 129.449219 18.285156 C 129.816406 18.425781 130.0625 19.582031 130.0625 20.832031 Z M 142.945312 20.832031 C 142.945312 22.359375 142.699219 23.609375 142.332031 23.609375 C 141.964844 23.609375 141.71875 22.359375 141.71875 20.832031 C 141.71875 19.304688 141.964844 18.054688 142.332031 18.054688 C 142.699219 18.054688 142.945312 19.304688 142.945312 20.832031 Z M 131.902344 21.480469 C 131.902344 22.640625 132.332031 23.332031 133.496094 24.027344 C 135.519531 25.230469 136.257812 25.230469 138.222656 24.074219 C 139.265625 23.425781 139.878906 22.546875 140.0625 21.390625 C 140.308594 19.90625 140.308594 19.953125 140.246094 21.757812 C 140.183594 23.472656 139.878906 23.980469 138.34375 24.769531 C 136.503906 25.742188 135.644531 26.851562 136.808594 26.851562 C 137.179688 26.851562 137.421875 27.035156 137.421875 27.316406 C 137.421875 27.546875 136.503906 27.777344 135.460938 27.777344 C 133.558594 27.730469 133.496094 27.683594 134.601562 27.082031 C 135.644531 26.480469 135.644531 26.390625 133.558594 24.90625 C 132.148438 23.890625 131.351562 22.824219 131.105469 21.621094 C 130.921875 20.695312 130.980469 19.90625 131.351562 19.90625 C 131.65625 19.90625 131.902344 20.601562 131.902344 21.480469 Z M 122.578125 33.242188 C 122.699219 34.398438 122.515625 35.183594 122.085938 35.183594 C 121.71875 35.183594 121.164062 35.648438 120.859375 36.203125 C 120.492188 36.992188 120.308594 36.480469 120.308594 34.121094 C 120.246094 31.34375 120.367188 30.972656 121.351562 31.109375 C 122.085938 31.203125 122.453125 31.804688 122.578125 33.242188 Z M 130.492188 34.816406 C 130.183594 36.898438 129.878906 37.269531 128.527344 36.898438 C 127.238281 36.480469 127.238281 32.964844 128.527344 32.59375 C 129.019531 32.40625 129.449219 31.945312 129.507812 31.527344 C 129.507812 31.066406 129.753906 31.203125 130.121094 31.898438 C 130.429688 32.546875 130.613281 33.84375 130.492188 34.816406 Z M 144.785156 34.027344 C 144.785156 37.5 143.804688 38.101562 143.4375 34.816406 C 143.128906 32.359375 143.4375 31.019531 144.234375 31.019531 C 144.539062 31.019531 144.785156 32.359375 144.785156 34.027344 Z M 126.074219 34.769531 C 126.074219 36.34375 125.828125 36.804688 125.03125 36.945312 C 124.109375 37.082031 123.925781 36.757812 123.925781 35.046875 C 123.925781 33.933594 124.109375 32.871094 124.355469 32.683594 C 125.335938 31.945312 126.074219 32.871094 126.074219 34.769531 Z M 134.050781 32.871094 C 134.234375 33.101562 133.988281 33.332031 133.496094 33.332031 C 132.820312 33.332031 132.515625 33.75 132.515625 34.722656 C 132.515625 35.742188 132.820312 36.109375 133.558594 36.109375 C 134.355469 36.109375 134.417969 36.25 133.925781 36.621094 C 132.578125 37.640625 131.289062 36.714844 131.289062 34.816406 C 131.289062 33.84375 131.472656 32.871094 131.71875 32.730469 C 132.332031 32.269531 133.621094 32.359375 134.050781 32.871094 Z M 137.914062 34.859375 C 138.035156 36.621094 137.914062 37.035156 137.117188 37.035156 C 135.828125 37.035156 135.214844 35.695312 136.074219 34.675781 C 136.992188 33.609375 136.992188 33.195312 136.195312 33.566406 C 135.519531 33.890625 135.335938 33.195312 136.011719 32.683594 C 136.992188 31.992188 137.730469 32.824219 137.914062 34.859375 Z M 141.71875 33.148438 C 141.71875 33.519531 141.472656 33.703125 141.105469 33.566406 C 140.796875 33.425781 140.492188 33.519531 140.492188 33.75 C 140.492188 34.027344 140.796875 34.257812 141.105469 34.257812 C 141.472656 34.257812 141.71875 34.859375 141.71875 35.648438 C 141.71875 37.035156 140.429688 37.59375 139.570312 36.574219 C 139.386719 36.296875 139.632812 36.109375 140.121094 36.109375 C 141.351562 36.109375 141.410156 35.371094 140.183594 35 C 139.265625 34.769531 138.894531 33.285156 139.691406 32.730469 C 140.429688 32.128906 141.71875 32.40625 141.71875 33.148438 Z M 141.71875 33.148438 "/>
<path style=" stroke:none;fill-rule:nonzero;fill:rgb(0%,0%,0%);fill-opacity:1;" d="M 23.558594 14.492188 C 23.4375 14.816406 23.375 17.546875 23.4375 20.507812 C 23.679688 28.101562 24.785156 27.777344 25.03125 20 C 25.152344 15.925781 24.96875 13.890625 24.539062 13.890625 C 24.171875 13.890625 23.742188 14.167969 23.558594 14.492188 Z M 23.558594 14.492188 "/>
<path style=" stroke:none;fill-rule:nonzero;fill:rgb(0%,0%,0%);fill-opacity:1;" d="M 46.75 19.90625 C 46.992188 28.007812 48.097656 28.101562 48.34375 20 C 48.464844 14.722656 48.34375 13.890625 47.546875 13.890625 C 46.75 13.890625 46.625 14.722656 46.75 19.90625 Z M 46.75 19.90625 "/>
<path style=" stroke:none;fill-rule:nonzero;fill:rgb(0%,0%,0%);fill-opacity:1;" d="M 98.773438 20.140625 C 98.773438 23.980469 99.019531 26.390625 99.386719 26.390625 C 99.753906 26.390625 100 23.980469 100 20.140625 C 100 16.296875 99.753906 13.890625 99.386719 13.890625 C 99.019531 13.890625 98.773438 16.296875 98.773438 20.140625 Z M 98.773438 20.140625 "/>
<path style=" stroke:none;fill-rule:nonzero;fill:rgb(0%,0%,0%);fill-opacity:1;" d="M 118.589844 21.527344 C 118.589844 23.054688 118.710938 23.609375 118.835938 22.777344 C 118.957031 21.945312 118.957031 20.695312 118.835938 20 C 118.710938 19.304688 118.589844 20 118.589844 21.527344 Z M 118.589844 21.527344 "/>
<path style=" stroke:none;fill-rule:nonzero;fill:rgb(0%,0%,0%);fill-opacity:1;" d="M 133.863281 16.757812 C 133.4375 17.082031 133.128906 17.917969 133.128906 18.609375 C 133.128906 19.859375 133.25 19.90625 135.890625 19.90625 C 138.28125 19.90625 138.648438 19.769531 138.648438 18.933594 C 138.648438 16.621094 135.765625 15.324219 133.863281 16.757812 Z M 133.863281 16.757812 "/>
<path style=" stroke:none;fill-rule:nonzero;fill:rgb(0%,0%,0%);fill-opacity:1;" d="M 120.980469 33.101562 C 120.980469 33.84375 121.105469 34.121094 121.289062 33.65625 C 121.410156 33.242188 121.410156 32.59375 121.289062 32.269531 C 121.105469 31.992188 120.980469 32.316406 120.980469 33.101562 Z M 120.980469 33.101562 "/>
<path style=" stroke:none;fill-rule:nonzero;fill:rgb(0%,0%,0%);fill-opacity:1;" d="M 128.957031 34.722656 C 128.957031 35.601562 129.078125 35.972656 129.265625 35.507812 C 129.386719 35.09375 129.386719 34.351562 129.265625 33.890625 C 129.078125 33.472656 128.957031 33.84375 128.957031 34.722656 Z M 128.957031 34.722656 "/>
<path style=" stroke:none;fill-rule:nonzero;fill:rgb(0%,0%,0%);fill-opacity:1;" d="M 124.664062 34.722656 C 124.664062 35.601562 124.785156 35.972656 124.96875 35.507812 C 125.09375 35.09375 125.09375 34.351562 124.96875 33.890625 C 124.785156 33.472656 124.664062 33.84375 124.664062 34.722656 Z M 124.664062 34.722656 "/>
</g>
</svg>
